<svg xmlns="http://www.w3.org/2000/svg" width="1024" height="1024" viewBox="0 0 1024 1024" version="1.1"><path d="M 236.310 317.338 C 235.120 317.977, 209.026 343.881, 178.323 374.901 C 147.620 405.922, 120.063 433.597, 117.085 436.401 C 114.107 439.206, 102.632 450.725, 91.585 462 C 58.420 495.850, 34.673 519.547, 31.637 521.821 C 29.261 523.601, 28.891 524.435, 29.460 526.733 C 29.927 528.619, 62.820 562.206, 132.796 632.250 C 215.330 714.863, 235.943 734.996, 237.974 734.977 C 239.871 734.961, 244.313 731.207, 255.810 719.906 C 264.314 711.546, 270.982 704.209, 270.810 703.398 C 270.639 702.595, 231.463 662.911, 183.750 615.211 C 135.478 566.951, 97 527.715, 97 526.750 C 97 525.785, 135.553 486.512, 184 438.126 C 239.522 382.674, 271 350.534, 271 349.297 C 271 348.118, 265.016 341.491, 255.717 332.372 C 247.311 324.130, 239.993 317.114, 239.454 316.781 C 238.916 316.448, 237.501 316.698, 236.310 317.338 M 767 332.095 C 759.025 340.329, 752.349 348.008, 752.164 349.160 C 751.902 350.793, 771.052 370.492, 838.955 438.438 L 926.083 525.620 923.256 529.178 C 921.701 531.135, 882.644 570.615, 836.464 616.912 C 789.564 663.931, 752.351 702.009, 752.163 703.174 C 751.910 704.745, 755.637 709.038, 767.271 720.573 C 780.437 733.628, 783.058 735.798, 785.042 735.279 C 787.155 734.726, 813.414 708.664, 948.750 572.796 C 976.215 545.223, 993 527.645, 993 526.456 C 993 523.699, 786.186 316.979, 783.511 317.063 C 782.278 317.101, 775.889 322.918, 767 332.095" stroke="none" fill="#3c568a" fill-rule="evenodd"/><path d="M 607.763 220.750 C 606.326 222.262, 600.452 232.950, 594.709 244.500 C 566.928 300.368, 536.479 345.563, 489.547 400.590 C 486.221 404.489, 479.907 411.914, 475.516 417.090 C 471.125 422.265, 467.290 426.725, 466.994 427 C 466.272 427.669, 448.648 448.666, 437.715 461.881 C 389.918 519.655, 369.346 556.884, 358.610 605.035 C 347.752 653.734, 356.561 697.449, 380.365 713.002 C 383.730 715.201, 387.320 717, 388.343 717 C 391.839 717, 429.897 677.922, 450.672 653 C 496.632 597.865, 536.482 535.281, 560.191 481 C 571.691 454.671, 571.753 454.510, 583.585 420 C 587.639 408.175, 590.966 399.268, 590.978 400.206 C 591.008 402.524, 584.908 426.374, 584.125 427 C 583.781 427.275, 583.413 428.752, 583.307 430.282 C 582.733 438.569, 568.895 478.616, 556.469 507.947 C 542.230 541.559, 513.838 595.505, 511.577 593.244 C 511.168 592.835, 510.983 592.976, 511.167 593.558 C 511.727 595.334, 505.955 605.090, 504.775 604.361 C 504.110 603.950, 503.981 604.160, 504.441 604.905 C 504.899 605.645, 500.249 613.516, 492.506 625.108 C 470.754 657.671, 454.773 678.144, 425.068 711.500 C 415.704 722.015, 384.923 751.860, 372 762.953 C 343.458 787.453, 314.700 807.006, 287.197 820.611 C 278.780 824.774, 272.038 828.477, 272.214 828.840 C 272.390 829.203, 276.126 836.607, 280.517 845.293 C 289.859 863.775, 287.332 862.893, 305.500 854.017 C 341.194 836.580, 386.825 802.804, 434.500 758.531 C 440.550 752.913, 447.075 746.961, 449 745.304 L 452.500 742.292 463.500 744.301 C 478.936 747.121, 516.378 747.346, 529.196 744.697 C 562.967 737.717, 590.335 721.529, 611.205 696.190 C 665.321 630.488, 682.008 505.885, 656.363 359 C 645.431 296.385, 620.498 218, 611.513 218 C 610.887 218, 609.199 219.238, 607.763 220.750 M 232.946 318.689 L 229.500 322.378 232.827 319.689 C 235.951 317.164, 237.352 316.564, 239.324 316.906 C 239.778 316.985, 239.864 316.588, 239.515 316.025 C 238.367 314.168, 236.440 314.949, 232.946 318.689 M 781.147 316.323 C 780.273 317.376, 780.605 317.569, 782.774 317.269 C 785.225 316.929, 795.994 327.392, 889.390 420.856 C 974.988 506.516, 993.184 525.189, 992.733 526.912 C 992.433 528.062, 992.595 528.751, 993.093 528.442 C 993.592 528.134, 994 527.120, 994 526.189 C 994 524.345, 785.210 315, 783.371 315 C 782.751 315, 781.751 315.595, 781.147 316.323 M 766.479 332.250 L 757.500 341.500 766.750 332.521 C 775.341 324.181, 776.455 323, 775.729 323 C 775.580 323, 771.418 327.163, 766.479 332.250 M 752.687 345.805 C 751.209 347.347, 750.001 349.035, 750.003 349.555 C 750.005 350.075, 789.712 390.100, 838.242 438.500 L 926.478 526.500 839.239 438.964 C 784.919 384.459, 752 350.712, 752 349.529 C 752 348.484, 752.978 346.587, 754.174 345.314 C 755.370 344.042, 756.129 343, 755.861 343 C 755.593 343, 754.165 344.262, 752.687 345.805 M 155.494 397.250 L 125.500 427.500 155.750 397.506 C 172.387 381.010, 186 367.397, 186 367.256 C 186 366.550, 183.368 369.138, 155.494 397.250 M 116.469 436.234 C 113.186 439.663, 112.031 441.126, 113.902 439.484 C 117.888 435.987, 123 430.856, 123 430.352 C 123 429.536, 122.142 430.308, 116.469 436.234 M 99.966 452.750 L 94.500 458.500 100.250 453.034 C 103.412 450.028, 106 447.440, 106 447.284 C 106 446.542, 105.044 447.408, 99.966 452.750 M 64.956 487.761 C 39.465 513.584, 29.015 524.836, 43.840 510.500 C 54.050 500.625, 89.482 464, 88.824 464 C 88.598 464, 77.858 474.693, 64.956 487.761 M 27.539 524.937 C 27.024 525.769, 28.090 527.486, 30.593 529.858 C 32.708 531.861, 33.466 532.375, 32.279 530.999 C 31.092 529.624, 29.717 527.410, 29.225 526.079 C 28.583 524.343, 28.106 524.020, 27.539 524.937 M 98.760 529.500 C 99.922 531.150, 138.361 569.850, 184.181 615.500 L 267.489 698.500 182.494 613.029 C 135.747 566.020, 97.308 527.320, 97.074 527.029 C 96.839 526.738, 97.598 527.850, 98.760 529.500 M 912.971 538.529 C 908.889 542.638, 905.790 546, 906.083 546 C 907.070 546, 921.363 532.030, 920.875 531.542 C 920.609 531.276, 917.052 534.420, 912.971 538.529 M 862.760 589.401 C 853.003 599.355, 841.866 610.763, 838.011 614.752 C 834.157 618.740, 842.346 610.771, 856.209 597.042 C 870.072 583.313, 881.208 571.906, 880.957 571.691 C 880.706 571.477, 872.517 579.446, 862.760 589.401 M 919.989 601.750 L 903.500 618.500 920.250 602.011 C 935.811 586.693, 937.452 585, 936.739 585 C 936.595 585, 929.057 592.538, 919.989 601.750 M 893.966 627.750 L 888.500 633.500 894.250 628.034 C 899.592 622.956, 900.458 622, 899.716 622 C 899.560 622, 896.972 624.587, 893.966 627.750 M 787.745 664.755 C 766.985 685.520, 750 702.963, 750 703.516 C 750 704.069, 757.644 712.157, 766.988 721.488 C 783.399 737.877, 784.035 738.390, 785.738 736.596 C 787.432 734.809, 787.408 734.760, 785.108 735.313 C 783.060 735.805, 780.504 733.695, 767.358 720.659 C 757.948 711.329, 752 704.672, 752 703.470 C 752 702.225, 765.585 687.921, 789.245 664.255 C 809.730 643.765, 826.265 627, 825.990 627 C 825.715 627, 808.505 643.990, 787.745 664.755 M 183.748 683.998 L 237.996 738.494 250.748 725.503 L 263.500 712.511 251.984 723.756 C 243.577 731.965, 239.799 735, 237.988 735 C 236.048 735, 223.949 723.498, 182.504 682.251 L 129.500 629.502 183.748 683.998 M 828.984 692.750 L 817.500 704.500 829.250 693.016 C 835.712 686.700, 841 681.413, 841 681.266 C 841 680.546, 839.650 681.836, 828.984 692.750" stroke="none" fill="#63c496" fill-rule="evenodd"/></svg>